AndikaMtihani-Bold.ufo
<glyph name="HyphenMinus" format="1">
  <advance width="895"/>
  <unicode hex="002D"/>
  <outline>
    <contour>
      <point x="80" y="525" type="line"/>
      <point x="815" y="525" type="line"/>
      <point x="815" y="735" type="line"/>
      <point x="80" y="735" type="line"/>
    </contour>
    <contour>
      <point x="450" y="1100" type="move" name="U"/>
    </contour>
  </outline>
</glyph>
<glyph name="Solidus" format="1">
  <advance width="1080"/>
  <unicode hex="002F"/>
  <outline>
    <contour>
      <point x="840" y="1600" type="line"/>
      <point x="10" y="-245" type="line"/>
      <point x="240" y="-245" type="line"/>
      <point x="1070" y="1600" type="line"/>
    </contour>
  </outline>
</glyph>
<glyph name="DigitZero" format="1">
  <advance width="1200"/>
  <unicode hex="0030"/>
  <outline>
    <contour>
      <point x="850" y="715" type="curve" smooth="yes"/>
      <point x="850" y="368"/>
      <point x="762" y="205"/>
      <point x="600" y="205" type="curve" smooth="yes"/>
      <point x="432" y="205"/>
      <point x="350" y="375"/>
      <point x="350" y="745" type="curve" smooth="yes"/>
      <point x="350" y="1093"/>
      <point x="437" y="1255"/>
      <point x="600" y="1255" type="curve" smooth="yes"/>
      <point x="772" y="1255"/>
      <point x="850" y="1086"/>
    </contour>
    <contour>
      <point x="1135" y="740" type="curve" smooth="yes"/>
      <point x="1135" y="1286"/>
      <point x="950" y="1485"/>
      <point x="610" y="1485" type="curve" smooth="yes"/>
      <point x="291" y="1485"/>
      <point x="65" y="1283"/>
      <point x="65" y="720" type="curve" smooth="yes"/>
      <point x="65" y="165"/>
      <point x="271" y="-25"/>
      <point x="590" y="-25" type="curve" smooth="yes"/>
      <point x="911" y="-25"/>
      <point x="1135" y="161"/>
    </contour>
    <contour>
      <point x="605" y="-100" type="move" name="L"/>
    </contour>
    <contour>
      <point x="605" y="1530" type="move" name="U"/>
    </contour>
  </outline>
</glyph>
<glyph name="DigitOne" format="1">
  <advance width="1200"/>
  <unicode hex="0031"/>
  <outline>
    <contour>
      <point x="1075" y="0" type="line"/>
      <point x="1075" y="235" type="line"/>
      <point x="767" y="235" type="line"/>
      <point x="767" y="1460" type="line"/>
      <point x="492" y="1460" type="line"/>
      <point x="177" y="1278" type="line"/>
      <point x="212" y="1018" type="line"/>
      <point x="492" y="1170" type="line"/>
      <point x="492" y="235" type="line"/>
      <point x="185" y="235" type="line"/>
      <point x="185" y="0" type="line"/>
    </contour>
    <contour>
      <point x="600" y="-100" type="move" name="L"/>
    </contour>
    <contour>
      <point x="600" y="1530" type="move" name="U"/>
    </contour>
  </outline>
</glyph>
<glyph name="DigitTwo" format="1">
  <advance width="1200"/>
  <unicode hex="0032"/>
  <outline>
    <contour>
      <point x="1090" y="260" type="line"/>
      <point x="1010" y="246"/>
      <point x="942" y="245"/>
      <point x="745" y="245" type="curve" smooth="yes"/>
      <point x="480" y="245" type="line"/>
      <point x="699" y="422"/>
      <point x="1046" y="739"/>
      <point x="1046" y="1065" type="curve" smooth="yes"/>
      <point x="1046" y="1323"/>
      <point x="850" y="1485"/>
      <point x="560" y="1485" type="curve" smooth="yes"/>
      <point x="391" y="1485"/>
      <point x="196" y="1402"/>
      <point x="105" y="1290" type="curve"/>
      <point x="170" y="1050" type="line"/>
      <point x="259" y="1158"/>
      <point x="412" y="1235"/>
      <point x="535" y="1235" type="curve" smooth="yes"/>
      <point x="688" y="1235"/>
      <point x="758" y="1133"/>
      <point x="758" y="1015" type="curve" smooth="yes"/>
      <point x="758" y="758"/>
      <point x="381" y="415"/>
      <point x="110" y="220" type="curve"/>
      <point x="110" y="0" type="line"/>
      <point x="1090" y="0" type="line"/>
    </contour>
    <contour>
      <point x="560" y="1530" type="move" name="U"/>
    </contour>
    <contour>
      <point x="600" y="-100" type="move" name="L"/>
    </contour>
  </outline>
</glyph>
<glyph name="DigitFour" format="1">
  <advance width="1200"/>
  <unicode hex="0034"/>
  <outline>
    <contour>
      <point x="1155" y="345" type="line"/>
      <point x="1155" y="570" type="line"/>
      <point x="995" y="570" type="line"/>
      <point x="995" y="1460" type="line"/>
      <point x="695" y="1460" type="line"/>
      <point x="60" y="570" type="line"/>
      <point x="60" y="345" type="line"/>
      <point x="730" y="345" type="line"/>
      <point x="730" y="0" type="line"/>
      <point x="995" y="0" type="line"/>
      <point x="995" y="345" type="line"/>
    </contour>
    <contour>
      <point x="730" y="1145" type="line"/>
      <point x="730" y="570" type="line"/>
      <point x="305" y="570" type="line"/>
    </contour>
    <contour>
      <point x="607" y="-100" type="move" name="L"/>
    </contour>
    <contour>
      <point x="607" y="1530" type="move" name="U"/>
    </contour>
  </outline>
</glyph>
<glyph name="LowLine" format="1">
  <advance width="1274"/>
  <unicode hex="005F"/>
  <outline>
    <contour>
      <point x="0" y="-350" type="line"/>
      <point x="1274" y="-350" type="line"/>
      <point x="1274" y="-140" type="line"/>
      <point x="0" y="-140" type="line"/>
    </contour>
  </outline>
</glyph>
<glyph name="GraveAccent" format="1">
  <advance width="640"/>
  <unicode hex="0060"/>
  <outline>
    <contour>
      <point x="0" y="1600" type="line"/>
      <point x="400" y="1200" type="line"/>
      <point x="640" y="1200" type="line"/>
      <point x="350" y="1600" type="line"/>
    </contour>
    <contour>
      <point x="500" y="1635" type="move" name="U"/>
    </contour>
  </outline>
</glyph>
<glyph name="VertLine" format="1">
  <advance width="690"/>
  <unicode hex="007C"/>
  <outline>
    <contour>
      <point x="240" y="1600" type="line"/>
      <point x="240" y="-390" type="line"/>
      <point x="450" y="-390" type="line"/>
      <point x="450" y="1600" type="line"/>
    </contour>
  </outline>
</glyph>
<glyph name="BrokenBar" format="1">
  <advance width="1064"/>
  <unicode hex="00A6"/>
  <outline>
    <contour>
      <point x="430" y="445" type="line"/>
      <point x="430" y="-390" type="line"/>
      <point x="640" y="-390" type="line"/>
      <point x="640" y="445" type="line"/>
    </contour>
    <contour>
      <point x="640" y="775" type="line"/>
      <point x="640" y="1600" type="line"/>
      <point x="430" y="1600" type="line"/>
      <point x="430" y="775" type="line"/>
    </contour>
  </outline>
</glyph>
<glyph name="Macron" format="1">
  <advance width="830"/>
  <unicode hex="00AF"/>
  <outline>
    <contour>
      <point x="0" y="1240" type="line"/>
      <point x="830" y="1240" type="line"/>
      <point x="830" y="1450" type="line"/>
      <point x="0" y="1450" type="line"/>
    </contour>
  </outline>
</glyph>
<glyph name="PlusMinusSgn" format="1">
  <advance width="1200"/>
  <unicode hex="00B1"/>
  <outline>
    <contour>
      <point x="495" y="1365" type="line"/>
      <point x="495" y="470" type="line"/>
      <point x="705" y="470" type="line"/>
      <point x="705" y="1365" type="line"/>
    </contour>
    <contour>
      <point x="155" y="805" type="line"/>
      <point x="1045" y="805" type="line"/>
      <point x="1045" y="1015" type="line"/>
      <point x="155" y="1015" type="line"/>
    </contour>
    <contour>
      <point x="155" y="160" type="line"/>
      <point x="1045" y="160" type="line"/>
      <point x="1045" y="370" type="line"/>
      <point x="155" y="370" type="line"/>
    </contour>
  </outline>
</glyph>
<glyph name="RtPtngDblAngQuotMrk" format="1">
  <advance width="1306"/>
  <unicode hex="00BB"/>
  <outline>
    <contour>
      <point x="801" y="0" type="line"/>
      <point x="1236" y="510" type="line"/>
      <point x="801" y="1020" type="line"/>
      <point x="556" y="1020" type="line"/>
      <point x="926" y="510" type="line"/>
      <point x="556" y="0" type="line"/>
    </contour>
    <contour>
      <point x="295" y="0" type="line"/>
      <point x="730" y="510" type="line"/>
      <point x="295" y="1020" type="line"/>
      <point x="50" y="1020" type="line"/>
      <point x="420" y="510" type="line"/>
      <point x="50" y="0" type="line"/>
    </contour>
  </outline>
</glyph>
<glyph name="DblAcuteAccent" format="1">
  <advance width="920"/>
  <unicode hex="02DD"/>
  <outline>
    <contour>
      <point x="210" y="1600" type="line"/>
      <point x="0" y="1200" type="line"/>
      <point x="210" y="1200" type="line"/>
      <point x="510" y="1600" type="line"/>
    </contour>
    <contour>
      <point x="620" y="1600" type="line"/>
      <point x="410" y="1200" type="line"/>
      <point x="620" y="1200" type="line"/>
      <point x="920" y="1600" type="line"/>
    </contour>
  </outline>
</glyph>
<glyph name="CombGrave" format="1">
  <advance width="0"/>
  <unicode hex="0300"/>
  <outline>
    <contour>
      <point x="-1050" y="1600" type="line"/>
      <point x="-650" y="1200" type="line"/>
      <point x="-410" y="1200" type="line"/>
      <point x="-700" y="1600" type="line"/>
    </contour>
    <contour>
      <point x="-590" y="1635" type="move" name="U"/>
    </contour>
    <contour>
      <point x="-630" y="1100" type="move" name="_U"/>
    </contour>
  </outline>
</glyph>
<glyph name="CombCircum" format="1">
  <advance width="0"/>
  <unicode hex="0302"/>
  <outline>
    <contour>
      <point x="-140" y="1200" type="line"/>
      <point x="-430" y="1600" type="line"/>
      <point x="-730" y="1600" type="line"/>
      <point x="-1020" y="1200" type="line"/>
      <point x="-780" y="1200" type="line"/>
      <point x="-580" y="1430" type="line"/>
      <point x="-380" y="1200" type="line"/>
    </contour>
    <contour>
      <point x="-588" y="1635" type="move" name="U"/>
    </contour>
    <contour>
      <point x="-580" y="1100" type="move" name="_U"/>
    </contour>
  </outline>
</glyph>
<glyph name="CombDiaer" format="1">
  <advance width="0"/>
  <unicode hex="0308"/>
  <outline>
    <contour>
      <point x="-510" y="1385" type="curve" smooth="yes"/>
      <point x="-510" y="1281"/>
      <point x="-436" y="1210"/>
      <point x="-335" y="1210" type="curve" smooth="yes"/>
      <point x="-233" y="1210"/>
      <point x="-160" y="1281"/>
      <point x="-160" y="1385" type="curve" smooth="yes"/>
      <point x="-160" y="1487"/>
      <point x="-233" y="1560"/>
      <point x="-335" y="1560" type="curve" smooth="yes"/>
      <point x="-436" y="1560"/>
      <point x="-510" y="1487"/>
    </contour>
    <contour>
      <point x="-1000" y="1385" type="curve" smooth="yes"/>
      <point x="-1000" y="1281"/>
      <point x="-926" y="1210"/>
      <point x="-825" y="1210" type="curve" smooth="yes"/>
      <point x="-723" y="1210"/>
      <point x="-650" y="1281"/>
      <point x="-650" y="1385" type="curve" smooth="yes"/>
      <point x="-650" y="1487"/>
      <point x="-723" y="1560"/>
      <point x="-825" y="1560" type="curve" smooth="yes"/>
      <point x="-926" y="1560"/>
      <point x="-1000" y="1487"/>
    </contour>
    <contour>
      <point x="-580" y="1585" type="move" name="U"/>
    </contour>
    <contour>
      <point x="-580" y="1100" type="move" name="_U"/>
    </contour>
  </outline>
</glyph>
<glyph name="Hyphen" format="1">
  <advance width="880"/>
  <unicode hex="2010"/>
  <outline>
    <contour>
      <point x="70" y="525" type="line"/>
      <point x="810" y="525" type="line"/>
      <point x="810" y="735" type="line"/>
      <point x="70" y="735" type="line"/>
    </contour>
    <contour>
      <point x="440" y="1100" type="move" name="U"/>
    </contour>
  </outline>
</glyph>
<glyph name="Hyphen" format="1">
  <advance width="880"/>
  <unicode hex="2010"/>
  <outline>
    <contour>
      <point x="70" y="525" type="line"/>
      <point x="810" y="525" type="line"/>
      <point x="810" y="735" type="line"/>
      <point x="70" y="735" type="line"/>
    </contour>
    <contour>
      <point x="440" y="1100" type="move" name="U"/>
    </contour>
  </outline>
</glyph>
<glyph name="EmDash" format="1">
  <advance width="1785"/>
  <unicode hex="2014"/>
  <outline>
    <contour>
      <point x="105" y="525" type="line"/>
      <point x="1680" y="525" type="line"/>
      <point x="1680" y="735" type="line"/>
      <point x="105" y="735" type="line"/>
    </contour>
  </outline>
</glyph>
<glyph name="SglLftPtngAngQuotMrk" format="1">
  <advance width="800"/>
  <unicode hex="2039"/>
  <outline>
    <contour>
      <point x="750" y="0" type="line"/>
      <point x="380" y="510" type="line"/>
      <point x="750" y="1020" type="line"/>
      <point x="505" y="1020" type="line"/>
      <point x="70" y="510" type="line"/>
      <point x="505" y="0" type="line"/>
    </contour>
  </outline>
</glyph>
<glyph name="FracSlash" format="1">
  <advance width="1280"/>
  <unicode hex="2044"/>
  <outline>
    <contour>
      <point x="1040" y="1600" type="line"/>
      <point x="10" y="-245" type="line"/>
      <point x="240" y="-245" type="line"/>
      <point x="1270" y="1600" type="line"/>
    </contour>
  </outline>
</glyph>
